<?xml version="1.0" encoding="UTF-8" standalone="no"?><!DOCTYPE svg PUBLIC "-//W3C//DTD SVG 1.1//EN" "http://www.w3.org/Graphics/SVG/1.1/DTD/svg11.dtd"><svg width="100%" height="100%" viewBox="0 0 335 322" version="1.1" xmlns="http://www.w3.org/2000/svg" xmlns:xlink="http://www.w3.org/1999/xlink" xml:space="preserve" xmlns:serif="http://www.serif.com/" style="fill-rule:evenodd;clip-rule:evenodd;stroke-linejoin:round;stroke-miterlimit:2;"><g><path id="background" d="M25.658,258.254c24.678,36.635 99.322,62.505 133.269,63.483c42.974,1.238 73.028,-10.604 93.938,-20.348c71.573,-33.356 91.597,-104.104 77.053,-173.809c-9.675,-46.367 -27.017,-87.492 -79.795,-113.019c-67.946,-32.864 -181.178,-5.333 -218.589,35.282c-37.411,40.616 -44.194,151.528 -5.876,208.411Z" style="fill:rgba(3, 172, 191, 1);"/>

<g><path id="petals" d="M149.264,97.795c0.682,-5.592 4.018,-17.102 7.845,-23.607c3.553,-6.034 13.509,-14.318 18.779,-16.129c5.354,-1.832 12.341,-3.152 17.898,-1.321c7.712,2.538 14.305,12.144 17.862,18.877c5.13,9.709 5.148,18.966 2.853,28.355c1.625,-0.733 3.224,-1.371 4.767,-1.911c6.806,-2.377 22.126,-6.769 32.153,-5.264c15.216,2.285 34.204,16.469 31.929,37.018c-1.692,15.304 -20.358,27.252 -34.174,31.5c0.192,0.189 0.381,0.381 0.568,0.574c2.772,2.867 17.335,21.446 19.241,31.426c1.845,9.66 0.35,23.656 -7.807,28.453c-10.834,6.365 -23.525,6.117 -35.143,4.651c-5.461,-0.69 -19.719,-2.77 -30.779,-9.434c-4.779,-2.882 -8.884,-6.747 -12.16,-10.441c1.558,6.861 2.267,14.818 1.187,21.641c-2.199,13.873 -12.968,25.53 -25.538,31.119c-11.161,4.958 -22.319,3.557 -31.656,-3.099c-9.01,-6.419 -18.927,-14.717 -19.861,-25.432c-0.469,-5.371 1.685,-13.805 4.479,-22.003c-8.468,4.083 -17.704,5.954 -27.37,3.652c-7.96,-1.897 -18.973,-3.801 -24.495,-9.847c-7.46,-8.17 -16.702,-28.505 -0.67,-45.454c8.882,-9.39 20.676,-15.088 33.016,-17.588c-4.808,-5.951 -8.721,-12.763 -11.729,-19.415c-2.508,-5.546 -4.883,-15.035 -5.191,-21.12c-0.195,-3.815 0.409,-10.02 1.868,-13.519c2.625,-6.294 7.426,-11.464 13.263,-14.884c3.159,-1.854 6.631,-3.192 10.216,-3.923c11.947,-2.425 24.213,4.235 33.287,11.286c5.416,4.21 10.836,9.669 15.362,15.839Z" style="fill:#8575bf;"/>

<path id="inside" d="M131.249,154.971c1.055,4.829 3.167,16.563 7.854,20.961c5.934,5.568 12.191,7.549 16.794,8.701c15.756,3.943 30.349,-4.196 39.831,-16.507c6.307,-8.189 10.65,-16.55 7.343,-27c-4.256,-13.454 -18.492,-26.788 -33.331,-25.798c-3.157,0.211 -9.951,3.463 -12.577,4.989c-11.19,6.501 -23.524,15.956 -26.57,29.373c-0.393,1.73 0.278,3.548 0.656,5.281Z" style="fill:rgba(242, 135, 4, 1);"/></g></g></svg>